<svg xmlns="http://www.w3.org/2000/svg" width="1600" height="900" viewBox="0 0 1600 900">
  <rect width="1600" height="900" fill="#0f172a" />
  <rect x="40" y="40" width="1520" height="820" rx="24" fill="#111827" stroke="#334155" stroke-width="4" />
  <text x="90" y="110" fill="#e2e8f0" font-family="Arial, sans-serif" font-size="36" font-weight="bold">
    Backend &amp; Frontend Service Overview
  </text>
  <text x="90" y="155" fill="#94a3b8" font-family="Arial, sans-serif" font-size="20">
    Grafana dashboard snapshot (Prometheus datasource)
  </text>

  <rect x="90" y="210" width="350" height="150" rx="16" fill="#1f2937" stroke="#475569" stroke-width="2" />
  <text x="120" y="260" fill="#e2e8f0" font-family="Arial, sans-serif" font-size="22">Backend Up</text>
  <text x="120" y="320" fill="#22c55e" font-family="Arial, sans-serif" font-size="40" font-weight="bold">UP</text>

  <rect x="470" y="210" width="350" height="150" rx="16" fill="#1f2937" stroke="#475569" stroke-width="2" />
  <text x="500" y="260" fill="#e2e8f0" font-family="Arial, sans-serif" font-size="22">Frontend Up</text>
  <text x="500" y="320" fill="#22c55e" font-family="Arial, sans-serif" font-size="40" font-weight="bold">UP</text>

  <rect x="90" y="390" width="720" height="200" rx="16" fill="#1f2937" stroke="#475569" stroke-width="2" />
  <text x="120" y="430" fill="#e2e8f0" font-family="Arial, sans-serif" font-size="22">Backend Request Rate</text>
  <polyline points="120,540 200,520 280,530 360,490 440,505 520,470 600,480 680,450 760,460" fill="none" stroke="#38bdf8" stroke-width="4" />

  <rect x="860" y="390" width="700" height="200" rx="16" fill="#1f2937" stroke="#475569" stroke-width="2" />
  <text x="890" y="430" fill="#e2e8f0" font-family="Arial, sans-serif" font-size="22">Backend p95 Latency</text>
  <polyline points="890,540 970,510 1050,530 1130,500 1210,520 1290,480 1370,500 1450,470 1530,490" fill="none" stroke="#f97316" stroke-width="4" />

  <rect x="90" y="620" width="720" height="200" rx="16" fill="#1f2937" stroke="#475569" stroke-width="2" />
  <text x="120" y="660" fill="#e2e8f0" font-family="Arial, sans-serif" font-size="22">Frontend Requests</text>
  <polyline points="120,770 200,740 280,760 360,730 440,750 520,710 600,730 680,700 760,720" fill="none" stroke="#a855f7" stroke-width="4" />

  <rect x="860" y="620" width="700" height="200" rx="16" fill="#1f2937" stroke="#475569" stroke-width="2" />
  <text x="890" y="660" fill="#e2e8f0" font-family="Arial, sans-serif" font-size="22">Frontend Active Connections</text>
  <polyline points="890,770 970,760 1050,770 1130,750 1210,760 1290,740 1370,750 1450,730 1530,740" fill="none" stroke="#22c55e" stroke-width="4" />
</svg>
