<svg xmlns="http://www.w3.org/2000/svg" viewBox="0 0 1200 720" width="1200" height="720" aria-labelledby="title desc">
  <title id="title">DevSecOps Architecture</title>
  <desc id="desc">Security controls in CI/CD pipelines with artifact hardening, policy gates, and runtime protections.</desc>
  <style>
    .boundary { fill: #eef3ff; stroke: #335; stroke-width: 2; }
    .box { fill: #fff; stroke: #333; stroke-width: 1.5; rx: 6; ry: 6; }
    .label { font: 14px sans-serif; fill: #111; }
    .title { font: 16px sans-serif; font-weight: bold; fill: #111; }
    .arrow { stroke: #444; stroke-width: 1.5; marker-end: url(#arrowhead); }
    .dashed { stroke-dasharray: 6 4; }
  </style>
  <defs>
    <marker id="arrowhead" markerWidth="10" markerHeight="7" refX="10" refY="3.5" orient="auto" fill="#444">
      <polygon points="0 0, 10 3.5, 0 7" />
    </marker>
  </defs>
  <rect class="boundary" x="40" y="40" width="240" height="240" />
  <text class="title" x="60" y="70">Developer</text>
  <rect class="box" x="70" y="100" width="180" height="50" />
  <text class="label" x="90" y="130">Repo &amp; Branch Policies</text>
  <rect class="box" x="70" y="170" width="180" height="50" />
  <text class="label" x="96" y="200">Secrets Management</text>

  <rect class="boundary" x="320" y="40" width="240" height="240" />
  <text class="title" x="340" y="70">CI Security</text>
  <rect class="box" x="350" y="100" width="180" height="45" />
  <text class="label" x="368" y="128">SAST / Secrets scan</text>
  <rect class="box" x="350" y="150" width="180" height="45" />
  <text class="label" x="378" y="178">SCA / SBOM</text>
  <rect class="box" x="350" y="200" width="180" height="45" />
  <text class="label" x="375" y="228">Policy as Code</text>

  <rect class="boundary" x="600" y="40" width="230" height="240" />
  <text class="title" x="620" y="70">Build &amp; Supply Chain</text>
  <rect class="box" x="630" y="100" width="170" height="45" />
  <text class="label" x="670" y="128">Image Build</text>
  <rect class="box" x="630" y="150" width="170" height="45" />
  <text class="label" x="640" y="178">Signing / Attestations</text>
  <rect class="box" x="630" y="200" width="170" height="45" />
  <text class="label" x="668" y="228">Registry Policies</text>

  <rect class="boundary" x="880" y="40" width="260" height="240" />
  <text class="title" x="900" y="70">Runtime</text>
  <rect class="box" x="910" y="100" width="200" height="45" />
  <text class="label" x="970" y="128">Admission</text>
  <rect class="box" x="910" y="150" width="200" height="45" />
  <text class="label" x="950" y="178">Network Policy</text>
  <rect class="box" x="910" y="200" width="200" height="45" />
  <text class="label" x="970" y="228">Runtime IDS</text>

  <rect class="boundary" x="200" y="340" width="760" height="260" />
  <text class="title" x="220" y="370">Feedback &amp; Governance</text>
  <rect class="box" x="230" y="400" width="320" height="60" />
  <text class="label" x="250" y="435">Dashboards (SIEM, Grafana, Security Hub)</text>
  <rect class="box" x="230" y="470" width="320" height="60" />
  <text class="label" x="252" y="505">Alerts to ChatOps + PagerDuty</text>
  <rect class="box" x="570" y="400" width="360" height="130" />
  <text class="label" x="590" y="430">Continuous Compliance (CIS / SOC2)</text>
  <text class="label" x="590" y="450">Drift detection &amp; waivers</text>
  <text class="label" x="590" y="470">Release gates via OPA/Rego</text>

  <text class="title" x="80" y="310">Flows</text>
  <line class="arrow" x1="280" y1="140" x2="320" y2="140" />
  <text class="label" x="270" y="125">PR checks</text>
  <line class="arrow" x1="560" y1="140" x2="600" y2="140" />
  <text class="label" x="540" y="125">Scan results</text>
  <line class="arrow" x1="830" y1="140" x2="880" y2="140" />
  <text class="label" x="790" y="125">Signed images</text>
  <line class="arrow" x1="1010" y1="280" x2="1010" y2="340" class="dashed" />
  <text class="label" x="1020" y="315">Runtime events</text>
  <line class="arrow" x1="420" y1="470" x2="420" y2="340" />
  <text class="label" x="430" y="365">Ticketing</text>
</svg>
