<svg xmlns="http://www.w3.org/2000/svg" width="960" height="520">
<rect width="100%" height="100%" fill="#0b0f1a"/>
<text x="60" y="40" fill="#f5f5f5" font-size="20" font-family="Arial">Detections by Category &amp; Severity</text>
<rect x="60" y="460.0" width="20" height="0.0" fill="#4ade80"/>
<text x="62" y="454.0" fill="#e5e7eb" font-size="10" font-family="Arial">0</text>
<rect x="90" y="260.0" width="20" height="200.0" fill="#fbbf24"/>
<text x="92" y="254.0" fill="#e5e7eb" font-size="10" font-family="Arial">1</text>
<rect x="120" y="260.0" width="20" height="200.0" fill="#f97316"/>
<text x="122" y="254.0" fill="#e5e7eb" font-size="10" font-family="Arial">1</text>
<rect x="150" y="460.0" width="20" height="0.0" fill="#ef4444"/>
<text x="152" y="454.0" fill="#e5e7eb" font-size="10" font-family="Arial">0</text>
<text x="60" y="480" fill="#cbd5f5" font-size="11" font-family="Arial">authentication</text>
<rect x="210" y="460.0" width="20" height="0.0" fill="#4ade80"/>
<text x="212" y="454.0" fill="#e5e7eb" font-size="10" font-family="Arial">0</text>
<rect x="240" y="460.0" width="20" height="0.0" fill="#fbbf24"/>
<text x="242" y="454.0" fill="#e5e7eb" font-size="10" font-family="Arial">0</text>
<rect x="270" y="260.0" width="20" height="200.0" fill="#f97316"/>
<text x="272" y="254.0" fill="#e5e7eb" font-size="10" font-family="Arial">1</text>
<rect x="300" y="460.0" width="20" height="0.0" fill="#ef4444"/>
<text x="302" y="454.0" fill="#e5e7eb" font-size="10" font-family="Arial">0</text>
<text x="210" y="480" fill="#cbd5f5" font-size="11" font-family="Arial">data-exfiltration</text>
<rect x="360" y="260.0" width="20" height="200.0" fill="#4ade80"/>
<text x="362" y="254.0" fill="#e5e7eb" font-size="10" font-family="Arial">1</text>
<rect x="390" y="460.0" width="20" height="0.0" fill="#fbbf24"/>
<text x="392" y="454.0" fill="#e5e7eb" font-size="10" font-family="Arial">0</text>
<rect x="420" y="460.0" width="20" height="0.0" fill="#f97316"/>
<text x="422" y="454.0" fill="#e5e7eb" font-size="10" font-family="Arial">0</text>
<rect x="450" y="460.0" width="20" height="0.0" fill="#ef4444"/>
<text x="452" y="454.0" fill="#e5e7eb" font-size="10" font-family="Arial">0</text>
<text x="360" y="480" fill="#cbd5f5" font-size="11" font-family="Arial">dns</text>
<rect x="510" y="460.0" width="20" height="0.0" fill="#4ade80"/>
<text x="512" y="454.0" fill="#e5e7eb" font-size="10" font-family="Arial">0</text>
<rect x="540" y="460.0" width="20" height="0.0" fill="#fbbf24"/>
<text x="542" y="454.0" fill="#e5e7eb" font-size="10" font-family="Arial">0</text>
<rect x="570" y="460.0" width="20" height="0.0" fill="#f97316"/>
<text x="572" y="454.0" fill="#e5e7eb" font-size="10" font-family="Arial">0</text>
<rect x="600" y="260.0" width="20" height="200.0" fill="#ef4444"/>
<text x="602" y="254.0" fill="#e5e7eb" font-size="10" font-family="Arial">1</text>
<text x="510" y="480" fill="#cbd5f5" font-size="11" font-family="Arial">malware</text>
<rect x="660" y="460.0" width="20" height="0.0" fill="#4ade80"/>
<text x="662" y="454.0" fill="#e5e7eb" font-size="10" font-family="Arial">0</text>
<rect x="690" y="260.0" width="20" height="200.0" fill="#fbbf24"/>
<text x="692" y="254.0" fill="#e5e7eb" font-size="10" font-family="Arial">1</text>
<rect x="720" y="460.0" width="20" height="0.0" fill="#f97316"/>
<text x="722" y="454.0" fill="#e5e7eb" font-size="10" font-family="Arial">0</text>
<rect x="750" y="460.0" width="20" height="0.0" fill="#ef4444"/>
<text x="752" y="454.0" fill="#e5e7eb" font-size="10" font-family="Arial">0</text>
<text x="660" y="480" fill="#cbd5f5" font-size="11" font-family="Arial">phishing</text>
<rect x="810" y="460.0" width="20" height="0.0" fill="#4ade80"/>
<text x="812" y="454.0" fill="#e5e7eb" font-size="10" font-family="Arial">0</text>
<rect x="840" y="460.0" width="20" height="0.0" fill="#fbbf24"/>
<text x="842" y="454.0" fill="#e5e7eb" font-size="10" font-family="Arial">0</text>
<rect x="870" y="460.0" width="20" height="0.0" fill="#f97316"/>
<text x="872" y="454.0" fill="#e5e7eb" font-size="10" font-family="Arial">0</text>
<rect x="900" y="260.0" width="20" height="200.0" fill="#ef4444"/>
<text x="902" y="254.0" fill="#e5e7eb" font-size="10" font-family="Arial">1</text>
<text x="810" y="480" fill="#cbd5f5" font-size="11" font-family="Arial">privilege-escalation</text>
<rect x="960" y="460.0" width="20" height="0.0" fill="#4ade80"/>
<text x="962" y="454.0" fill="#e5e7eb" font-size="10" font-family="Arial">0</text>
<rect x="990" y="460.0" width="20" height="0.0" fill="#fbbf24"/>
<text x="992" y="454.0" fill="#e5e7eb" font-size="10" font-family="Arial">0</text>
<rect x="1020" y="260.0" width="20" height="200.0" fill="#f97316"/>
<text x="1022" y="254.0" fill="#e5e7eb" font-size="10" font-family="Arial">1</text>
<rect x="1050" y="460.0" width="20" height="0.0" fill="#ef4444"/>
<text x="1052" y="454.0" fill="#e5e7eb" font-size="10" font-family="Arial">0</text>
<text x="960" y="480" fill="#cbd5f5" font-size="11" font-family="Arial">web-attack</text>
<rect x="720" y="30" width="12" height="12" fill="#4ade80"/>
<text x="738" y="40" fill="#e5e7eb" font-size="12" font-family="Arial">Low</text>
<rect x="720" y="50" width="12" height="12" fill="#fbbf24"/>
<text x="738" y="60" fill="#e5e7eb" font-size="12" font-family="Arial">Medium</text>
<rect x="720" y="70" width="12" height="12" fill="#f97316"/>
<text x="738" y="80" fill="#e5e7eb" font-size="12" font-family="Arial">High</text>
<rect x="720" y="90" width="12" height="12" fill="#ef4444"/>
<text x="738" y="100" fill="#e5e7eb" font-size="12" font-family="Arial">Critical</text>
</svg>